<svg width="103" height="103" viewBox="0 0 103 103" fill="none" xmlns="http://www.w3.org/2000/svg">
<g clip-path="url(#clip0_132_88)">
<path d="M0 51.5C0 37.8414 5.42588 24.7421 15.084 15.084C24.7421 5.42588 37.8414 0 51.5 0C65.1587 0 78.2579 5.42588 87.916 15.084C97.5741 24.7421 103 37.8414 103 51.5C103 65.1587 97.5741 78.2579 87.916 87.916C78.2579 97.5741 65.1587 103 51.5 103C37.8414 103 24.7421 97.5741 15.084 87.916C5.42588 78.2579 0 65.1587 0 51.5ZM51.5 32.1875C56.622 32.1875 61.5342 34.2222 65.156 37.844C68.7778 41.4658 70.8125 46.378 70.8125 51.5C70.8125 56.622 68.7778 61.5342 65.156 65.156C61.5342 68.7778 56.622 70.8125 51.5 70.8125C46.378 70.8125 41.4658 68.7778 37.844 65.156C34.2222 61.5342 32.1875 56.622 32.1875 51.5C32.1875 46.378 34.2222 41.4658 37.844 37.844C41.4658 34.2222 46.378 32.1875 51.5 32.1875ZM51.5 77.25C58.3293 77.25 64.8789 74.5371 69.708 69.708C74.5371 64.8789 77.25 58.3293 77.25 51.5C77.25 44.6707 74.5371 38.1211 69.708 33.292C64.8789 28.4629 58.3293 25.75 51.5 25.75C44.6707 25.75 38.1211 28.4629 33.292 33.292C28.4629 38.1211 25.75 44.6707 25.75 51.5C25.75 58.3293 28.4629 64.8789 33.292 69.708C38.1211 74.5371 44.6707 77.25 51.5 77.25ZM51.5 57.9375C53.2073 57.9375 54.8447 57.2593 56.052 56.052C57.2593 54.8447 57.9375 53.2073 57.9375 51.5C57.9375 49.7927 57.2593 48.1553 56.052 46.948C54.8447 45.7407 53.2073 45.0625 51.5 45.0625C49.7927 45.0625 48.1553 45.7407 46.948 46.948C45.7407 48.1553 45.0625 49.7927 45.0625 51.5C45.0625 53.2073 45.7407 54.8447 46.948 56.052C48.1553 57.2593 49.7927 57.9375 51.5 57.9375Z" fill="white"/>
</g>
<defs>
<clipPath id="clip0_132_88">
<rect width="103" height="103" fill="white"/>
</clipPath>
</defs>
</svg>
