<svg width="112" height="72" viewBox="0 0 112 72" fill="none" xmlns="http://www.w3.org/2000/svg">
<path d="M15.1962 66.0677V59.3136H16.5331L19.8354 61.5051H19.8853L23.1876 59.3136H24.5245V66.0677H22.9282V61.2028L20.6634 62.6387V66.0677H19.0672V62.6387L16.7925 61.2028V66.0677H15.1962ZM27.4098 66.0677C26.8245 66.0677 26.3955 65.9292 26.1228 65.6521C25.8568 65.3749 25.7237 65.0159 25.7237 64.5752V61.2028H27.1703V64.4146C27.1703 64.7924 27.3699 64.9814 27.7689 64.9814H29.8441C30.2432 64.9814 30.4427 64.7924 30.4427 64.4146V61.2028H31.8894V64.5752C31.8894 65.0159 31.7531 65.3749 31.4803 65.6521C31.2143 65.9292 30.7885 66.0677 30.2033 66.0677H27.4098ZM32.7651 66.1149V65.0286H37.6538C37.9331 65.0286 38.0728 64.8807 38.0728 64.5846C38.0728 64.295 37.9331 64.1501 37.6538 64.1501H34.4911C33.8991 64.1501 33.4502 64.0241 33.1443 63.7722C32.8382 63.514 32.6853 63.1456 32.6853 62.667C32.6853 62.182 32.8382 61.8106 33.1443 61.5524C33.4567 61.2879 33.9057 61.1556 34.4911 61.1556H39.0406V62.2419H34.561C34.2748 62.2419 34.132 62.3742 34.132 62.6387C34.132 62.7709 34.1719 62.8748 34.2517 62.9504C34.3315 63.026 34.4345 63.0638 34.561 63.0638H37.9132C38.432 63.0638 38.8277 63.1928 39.1004 63.4511C39.3798 63.7029 39.5195 64.0713 39.5195 64.5563C39.5195 65.0475 39.3798 65.4316 39.1004 65.7087C38.8211 65.9795 38.4252 66.1149 37.9132 66.1149H32.7651ZM40.3687 66.0677V61.2028H41.8153V66.0677H40.3687ZM40.3587 60.3999V59.3325H41.8253V60.3999H40.3587ZM45.5455 66.1149C44.6541 66.1149 43.9592 65.9071 43.4603 65.4915C42.9615 65.0696 42.7121 64.4524 42.7121 63.64C42.7121 62.8214 42.9615 62.2041 43.4603 61.7885C43.9592 61.3666 44.6541 61.1556 45.5455 61.1556H48.8877V62.2419H45.5455C45.1131 62.2419 44.7804 62.3553 44.5478 62.582C44.3215 62.8087 44.2086 63.1614 44.2086 63.64C44.2086 64.1123 44.3215 64.4618 44.5478 64.6885C44.7804 64.9152 45.1131 65.0286 45.5455 65.0286H48.9875V66.1149H45.5455ZM53.3693 66.0677V59.3136H60.9916V60.5416H54.9656V62.412H60.2134V63.64H54.9656V66.0677H53.3693ZM64.174 66.1149C63.2827 66.1149 62.5877 65.9071 62.0889 65.4915C61.59 65.0696 61.3406 64.4524 61.3406 63.64C61.3406 62.8214 61.59 62.2041 62.0889 61.7885C62.5877 61.3666 63.2827 61.1556 64.174 61.1556H66.0197C66.9111 61.1556 67.6061 61.3666 68.1049 61.7885C68.6037 62.2041 68.8532 62.8214 68.8532 63.64C68.8532 64.4524 68.6037 65.0696 68.1049 65.4915C67.6061 65.9071 66.9111 66.1149 66.0197 66.1149H64.174ZM64.174 65.0286H66.0197C66.4521 65.0286 66.7814 64.9152 67.0075 64.6885C67.2403 64.4618 67.3566 64.1123 67.3566 63.64C67.3566 63.1614 67.2403 62.8087 67.0075 62.582C66.7814 62.3553 66.4521 62.2419 66.0197 62.2419H64.174C63.7416 62.2419 63.4092 62.3553 63.1763 62.582C62.9503 62.8087 62.8371 63.1614 62.8371 63.64C62.8371 64.1123 62.9503 64.4618 63.1763 64.6885C63.4092 64.9152 63.7416 65.0286 64.174 65.0286ZM69.7535 66.0677V61.2028H73.6844C74.263 61.2028 74.6886 61.3413 74.9614 61.6185C75.2342 61.8892 75.3704 62.2482 75.3704 62.6954V63.7061H73.9038V62.8654C73.9038 62.4875 73.7043 62.2986 73.3052 62.2986H71.2201V66.0677H69.7535ZM82.885 66.0677V63.6589L79.1038 59.3136H81.0792L83.6831 62.3742L86.2771 59.3136H88.2525L84.4913 63.6494V66.0677H82.885ZM90.1392 66.1149C89.2478 66.1149 88.5528 65.9071 88.054 65.4915C87.5552 65.0696 87.3057 64.4524 87.3057 63.64C87.3057 62.8214 87.5552 62.2041 88.054 61.7885C88.5528 61.3666 89.2478 61.1556 90.1392 61.1556H91.9849C92.8762 61.1556 93.5712 61.3666 94.07 61.7885C94.5689 62.2041 94.8183 62.8214 94.8183 63.64C94.8183 64.4524 94.5689 65.0696 94.07 65.4915C93.5712 65.9071 92.8762 66.1149 91.9849 66.1149H90.1392ZM90.1392 65.0286H91.9849C92.4173 65.0286 92.7465 64.9152 92.9726 64.6885C93.2054 64.4618 93.3218 64.1123 93.3218 63.64C93.3218 63.1614 93.2054 62.8087 92.9726 62.582C92.7465 62.3553 92.4173 62.2419 91.9849 62.2419H90.1392C89.7068 62.2419 89.3743 62.3553 89.1415 62.582C88.9154 62.8087 88.8023 63.1614 88.8023 63.64C88.8023 64.1123 88.9154 64.4618 89.1415 64.6885C89.3743 64.9152 89.7068 65.0286 90.1392 65.0286ZM97.3548 66.0677C96.7696 66.0677 96.3406 65.9292 96.0678 65.6521C95.8018 65.3749 95.6687 65.0159 95.6687 64.5752V61.2028H97.1154V64.4146C97.1154 64.7924 97.3149 64.9814 97.714 64.9814H99.7892C100.188 64.9814 100.388 64.7924 100.388 64.4146V61.2028H101.834V64.5752C101.834 65.0159 101.698 65.3749 101.425 65.6521C101.159 65.9292 100.734 66.0677 100.148 66.0677H97.3548Z" fill="#1E1E1E"/>
<path d="M60.5195 18.7132C59.118 17.76 55.3477 17.2868 55.3477 17.2868V0.349548C55.3477 0.349548 67.9776 1.10134 73.5692 5.7623C76.9879 8.61192 78.7222 11.4897 80.3934 15.5015C81.9797 19.3098 81.9298 25.883 81.9298 25.883C81.9298 25.883 81.5874 30.7939 80.3934 33.6762C78.7532 37.6354 76.9577 40.1324 73.5692 42.9242C68.1676 47.3745 55.3477 49.0643 55.3477 49.0643V40.572V31.4658C55.3477 31.4658 59.1056 31.4047 60.5195 30.5684C63.0889 29.0485 64.434 26.957 64.191 24.0976C63.9789 21.6028 62.6665 20.1734 60.5195 18.7132Z" fill="#1E1E1E"/>
<path d="M57.5863 23.5686C57.206 23.5788 56.9292 23.763 56.7882 24.0976C56.5774 24.5975 57.018 25.235 57.5863 25.2501C58.1654 25.2656 58.649 24.6072 58.4343 24.0976C58.2873 23.7489 57.9828 23.558 57.5863 23.5686Z" fill="#1E1E1E"/>
<path d="M0.0201302 23.7576C0.0201302 23.7576 3.85124 23.9465 5.8067 23.7576C6.8225 23.6595 6.59144 22.6051 7.61251 22.6051C8.90949 22.6051 8.19729 25.0328 9.77748 25.0328C11.6531 25.0328 11.0711 22.1923 12.9501 22.2367C15.0832 22.287 13.9578 26.4498 15.574 26.4498C17.5694 26.4498 16.428 21.5449 19.1557 21.1409C21.8993 20.7347 20.7819 28.3863 22.478 28.3863C25.1418 28.3863 23.1963 19.1477 25.7604 19.1477C28.3244 19.1477 26.0996 33.4023 28.6537 33.4023C31.2077 33.4023 29.4618 15.5015 32.2553 15.5015C35.0488 15.5015 32.3551 37.672 34.4901 37.672C36.6252 37.672 35.4279 7.37763 37.3934 7.37763C39.3588 7.37763 36.7748 40.9688 39.0994 42.9242C41.424 44.8796 39.269 4.61928 41.4739 4.07139C43.6788 3.5235 42.1024 46.0415 43.4992 46.0415C44.896 46.0415 44.3572 1.51143 45.6442 1.52087C46.9312 1.53032 45.6841 47.2317 46.9811 47.2884C48.2781 47.3451 46.8414 0.34956 48.5475 0.34956C50.2535 0.34956 48.4377 48.1575 49.4853 48.3086C50.5329 48.4597 49.7148 0.349548 51.0317 0.34955C52.3487 0.349552 51.2213 49.0643 52.2988 49.0643C53.3763 49.0643 51.9795 0.349582 53.4461 0.349548C54.9127 0.349512 52.5021 49.0643 54.1545 49.0643C55.8068 49.0643 54.6495 1.80428 55.3479 0.34955M55.3479 0.34955C55.3479 0.34955 67.9778 1.10134 73.5694 5.7623C76.9881 8.61192 78.7224 11.4898 80.3936 15.5015C81.9799 19.3098 81.93 25.883 81.93 25.883M55.3479 0.34955V17.2868C55.3479 17.2868 59.1181 17.76 60.5197 18.7132C62.6667 20.1734 63.9791 21.6029 64.1912 24.0976C64.4342 26.957 63.0891 29.0485 60.5197 30.5684C59.1058 31.4048 55.3479 31.4658 55.3479 31.4658V40.5721V49.0643C55.3479 49.0643 68.1677 47.3746 73.5694 42.9242C76.9579 40.1324 78.7534 37.6354 80.3936 33.6762C81.5876 30.794 81.93 25.883 81.93 25.883M81.93 25.883C81.93 25.883 81.9799 19.639 83.4664 19.4973C84.953 19.3556 85.0627 27.1641 87.098 27.1866C89.1333 27.2089 89.0235 21.6794 90.55 21.6794C92.0764 21.6794 91.3114 25.9272 93.3634 25.883C95.0862 25.846 94.6407 22.6605 96.3565 22.8129C97.9424 22.9539 97.2416 25.9854 98.8307 25.883C99.9641 25.8099 99.7287 24.135 101.046 24.0976C102.363 24.0604 111.98 24.0976 111.98 24.0976M56.7883 24.0976C56.9294 23.763 57.2062 23.5788 57.5865 23.5686C57.983 23.5581 58.2875 23.7489 58.4345 24.0976C58.6492 24.6072 58.1656 25.2656 57.5865 25.2501C57.0182 25.235 56.5776 24.5975 56.7883 24.0976Z" stroke="#1E1E1E" stroke-width="0.5"/>
<path d="M65.7773 21.8588L63.9815 19.4689C63.9815 19.4689 65.8649 22.6319 65.7773 24.825C65.6887 27.0422 63.5126 30.0866 63.5126 30.0866L65.7773 27.8478L63.1035 31.7492L65.3683 29.6993L63.9815 32.6182L66.5555 30.3794L63.9815 34.5169L67.2738 30.9179L65.7773 34.5169L69.4887 28.6791L66.9646 34.5169L71.2845 30.3794L69.4887 33.7423L73.3398 29.6993L67.7827 37.4925L72.1126 33.7423L70.0474 37.4925L72.8309 34.9137L70.0474 39.6368L74.3674 34.5169L71.6936 39.6368L76.9414 32.3254L72.1126 41.29C72.1126 41.29 79.5096 32.7892 80.0342 26.2419C80.5686 19.5719 74.3674 9.97534 74.3674 9.97534L77.2507 16.2572L73.3398 10.7499L76.9414 19.1761L71.2845 9.97534L74.3674 15.9643L75.405 21.8588L73.7588 16.2572L70.0474 9.97534L72.8309 16.2572L70.0474 13.0926L72.1126 19.4689L69.4887 15.133L71.2845 19.4689L71.6936 22.6334L70.5163 19.4689L68.4012 15.9643L69.1295 18.7415L66.9646 15.9643L68.4012 20.1018L66.5555 18.3542L67.7827 21.8588L65.059 17.3718L65.7773 20.4891L62.8441 16.2572L65.7773 21.8588Z" fill="white" fill-opacity="0.99"/>
</svg>
