<svg width="136" height="87" viewBox="0 0 136 87" fill="none" xmlns="http://www.w3.org/2000/svg">
<path d="M18.4525 79.8318V71.6705H20.0759L24.0859 74.3187H24.1464L28.1564 71.6705H29.7797V79.8318H27.8414V73.9534L25.0913 75.6884V79.8318H23.153V75.6884L20.3909 73.9534V79.8318H18.4525ZM33.2833 79.8318C32.5727 79.8318 32.0517 79.6644 31.7205 79.3295C31.3975 78.9946 31.2359 78.5609 31.2359 78.0283V73.9534H32.9926V77.8343C32.9926 78.2908 33.2349 78.5191 33.7195 78.5191H36.2393C36.7239 78.5191 36.9662 78.2908 36.9662 77.8343V73.9534H38.7228V78.0283C38.7228 78.5609 38.5574 78.9946 38.2261 79.3295C37.9032 79.6644 37.3861 79.8318 36.6754 79.8318H33.2833ZM39.7863 79.8888V78.5762H45.7225C46.0617 78.5762 46.2313 78.3975 46.2313 78.0397C46.2313 77.6898 46.0617 77.5147 45.7225 77.5147H41.8821C41.1632 77.5147 40.6181 77.3624 40.2466 77.0581C39.875 76.746 39.6894 76.3009 39.6894 75.7226C39.6894 75.1366 39.875 74.6878 40.2466 74.3757C40.6261 74.0561 41.1712 73.8963 41.8821 73.8963H47.4064V75.209H41.9669C41.6195 75.209 41.446 75.3688 41.446 75.6884C41.446 75.8482 41.4944 75.9737 41.5914 76.065C41.6883 76.1564 41.8133 76.202 41.9669 76.202H46.0375C46.6674 76.202 47.1479 76.3579 47.4791 76.67C47.8183 76.9743 47.9879 77.4195 47.9879 78.0055C47.9879 78.599 47.8183 79.0631 47.4791 79.398C47.1399 79.7252 46.6592 79.8888 46.0375 79.8888H39.7863ZM49.0191 79.8318V73.9534H50.7758V79.8318H49.0191ZM49.007 72.9832V71.6934H50.7879V72.9832H49.007ZM55.3052 79.8888C54.2229 79.8888 53.379 79.6377 52.7733 79.1355C52.1675 78.6257 51.8647 77.8799 51.8647 76.8983C51.8647 75.9091 52.1675 75.1633 52.7733 74.6611C53.379 74.1513 54.2229 73.8963 55.3052 73.8963H59.3637V75.209H55.3052C54.7802 75.209 54.3763 75.3459 54.0938 75.6199C53.819 75.8938 53.6819 76.32 53.6819 76.8983C53.6819 77.469 53.819 77.8913 54.0938 78.1653C54.3763 78.4392 54.7802 78.5762 55.3052 78.5762H59.4848V79.8888H55.3052ZM64.8056 79.8318V71.6705H74.0613V73.1544H66.744V75.4144H73.1163V76.8983H66.744V79.8318H64.8056ZM77.9256 79.8888C76.8433 79.8888 75.9994 79.6377 75.3937 79.1355C74.7879 78.6257 74.485 77.8799 74.485 76.8983C74.485 75.9091 74.7879 75.1633 75.3937 74.6611C75.9994 74.1513 76.8433 73.8963 77.9256 73.8963H80.1669C81.2492 73.8963 82.0931 74.1513 82.6988 74.6611C83.3046 75.1633 83.6074 75.9091 83.6074 76.8983C83.6074 77.8799 83.3046 78.6257 82.6988 79.1355C82.0931 79.6377 81.2492 79.8888 80.1669 79.8888H77.9256ZM77.9256 78.5762H80.1669C80.6919 78.5762 81.0917 78.4392 81.3662 78.1653C81.649 77.8913 81.7902 77.469 81.7902 76.8983C81.7902 76.32 81.649 75.8938 81.3662 75.6199C81.0917 75.3459 80.6919 75.209 80.1669 75.209H77.9256C77.4006 75.209 76.9969 75.3459 76.7142 75.6199C76.4396 75.8938 76.3023 76.32 76.3023 76.8983C76.3023 77.469 76.4396 77.8913 76.7142 78.1653C76.9969 78.4392 77.4006 78.5762 77.9256 78.5762ZM84.7007 79.8318V73.9534H89.4739C90.1765 73.9534 90.6934 74.1207 91.0246 74.4556C91.3558 74.7828 91.5213 75.2165 91.5213 75.7569V76.9782H89.7404V75.9623C89.7404 75.5057 89.4981 75.2775 89.0135 75.2775H86.4815V79.8318H84.7007ZM100.646 79.8318V76.9211L96.0546 71.6705H98.4533L101.615 75.3688L104.765 71.6705H107.164L102.597 76.9097V79.8318H100.646ZM109.455 79.8888C108.372 79.8888 107.528 79.6377 106.923 79.1355C106.317 78.6257 106.014 77.8799 106.014 76.8983C106.014 75.9091 106.317 75.1633 106.923 74.6611C107.528 74.1513 108.372 73.8963 109.455 73.8963H111.696C112.778 73.8963 113.622 74.1513 114.228 74.6611C114.834 75.1633 115.137 75.9091 115.137 76.8983C115.137 77.8799 114.834 78.6257 114.228 79.1355C113.622 79.6377 112.778 79.8888 111.696 79.8888H109.455ZM109.455 78.5762H111.696C112.221 78.5762 112.621 78.4392 112.895 78.1653C113.178 77.8913 113.319 77.469 113.319 76.8983C113.319 76.32 113.178 75.8938 112.895 75.6199C112.621 75.3459 112.221 75.209 111.696 75.209H109.455C108.93 75.209 108.526 75.3459 108.243 75.6199C107.969 75.8938 107.831 76.32 107.831 76.8983C107.831 77.469 107.969 77.8913 108.243 78.1653C108.526 78.4392 108.93 78.5762 109.455 78.5762ZM118.217 79.8318C117.506 79.8318 116.985 79.6644 116.654 79.3295C116.331 78.9946 116.169 78.5609 116.169 78.0283V73.9534H117.926V77.8343C117.926 78.2908 118.168 78.5191 118.653 78.5191H121.173C121.657 78.5191 121.899 78.2908 121.899 77.8343V73.9534H123.656V78.0283C123.656 78.5609 123.491 78.9946 123.159 79.3295C122.836 79.6644 122.319 79.8318 121.609 79.8318H118.217Z" fill="#1E1E1E"/>
<path d="M73.488 22.6118C71.7861 21.46 67.2079 20.8882 67.2079 20.8882V0.422363C67.2079 0.422363 82.5442 1.33078 89.3341 6.96277C93.4853 10.4061 95.5913 13.8834 97.6205 18.7309C99.5468 23.3327 99.4862 31.2753 99.4862 31.2753C99.4862 31.2753 99.0704 37.2093 97.6205 40.6921C95.6289 45.4761 93.4487 48.4933 89.3341 51.8667C82.7749 57.2442 67.2079 59.286 67.2079 59.286V49.0245V38.0211C67.2079 38.0211 71.7711 37.9474 73.488 36.9368C76.608 35.1002 78.2413 32.5731 77.9462 29.118C77.6886 26.1034 76.0951 24.3762 73.488 22.6118Z" fill="#1E1E1E"/>
<path d="M69.9262 28.4788C69.4644 28.4911 69.1283 28.7137 68.957 29.118C68.7012 29.722 69.2362 30.4923 69.9262 30.5105C70.6294 30.5292 71.2167 29.7337 70.956 29.118C70.7774 28.6966 70.4077 28.466 69.9262 28.4788Z" fill="#1E1E1E"/>
<path d="M0.024231 28.707C0.024231 28.707 4.67629 28.9353 7.05078 28.707C8.28425 28.5886 8.00367 27.3145 9.24354 27.3145C10.8185 27.3145 9.95364 30.248 11.8724 30.248C14.15 30.248 13.4433 26.8157 15.7249 26.8693C18.3151 26.9301 16.9485 31.9601 18.9111 31.9601C21.334 31.9601 19.948 26.0334 23.2603 25.5453C26.5918 25.0545 25.235 34.3001 27.2945 34.3001C30.5291 34.3001 28.1668 23.1369 31.2802 23.1369C34.3937 23.1369 31.6921 40.3611 34.7935 40.3611C37.8949 40.3611 35.7748 18.7309 39.1669 18.7309C42.5591 18.7309 39.2881 45.5204 41.8806 45.5204C44.4732 45.5204 43.0194 8.91462 45.406 8.91462C47.7926 8.91462 44.6549 49.504 47.4776 51.8667C50.3004 54.2295 47.6836 5.58162 50.3609 4.91959C53.0383 4.25756 51.1242 55.6334 52.8202 55.6334C54.5163 55.6334 53.8621 1.8263 55.4249 1.83771C56.9877 1.84913 55.4734 57.0717 57.0483 57.1401C58.6232 57.2086 56.8787 0.422377 58.9503 0.422377C61.0219 0.422377 58.817 58.1903 60.0891 58.3729C61.3611 58.5555 60.3677 0.422363 61.9669 0.422366C63.566 0.422368 62.197 59.286 63.5054 59.286C64.8138 59.286 63.1178 0.422404 64.8986 0.422363C66.6795 0.42232 63.7523 59.286 65.7588 59.286C67.7652 59.286 66.3599 2.18017 67.2079 0.422366M67.2079 0.422366C67.2079 0.422366 82.5442 1.33078 89.334 6.96277C93.4853 10.4061 95.5913 13.8834 97.6205 18.7309C99.5468 23.3327 99.4862 31.2753 99.4862 31.2753M67.2079 0.422366V20.8882C67.2079 20.8882 71.7861 21.46 73.488 22.6118C76.0951 24.3762 77.6886 26.1034 77.9462 29.118C78.2413 32.5731 76.608 35.1002 73.488 36.9368C71.7711 37.9474 67.2079 38.0211 67.2079 38.0211V49.0246V59.286C67.2079 59.286 82.7749 57.2442 89.334 51.8667C93.4487 48.4933 95.6289 45.4761 97.6205 40.6921C99.0704 37.2094 99.4862 31.2753 99.4862 31.2753M99.4862 31.2753C99.4862 31.2753 99.5468 23.7304 101.352 23.5592C103.157 23.388 103.29 32.8233 105.762 32.8505C108.233 32.8774 108.1 26.1959 109.953 26.1959C111.807 26.1959 110.878 31.3287 113.37 31.2753C115.462 31.2305 114.921 27.3814 117.004 27.5656C118.93 27.7359 118.079 31.399 120.009 31.2753C121.385 31.1869 121.099 29.1632 122.698 29.118C124.297 29.073 135.976 29.118 135.976 29.118M68.9571 29.118C69.1284 28.7137 69.4644 28.4911 69.9262 28.4788C70.4077 28.466 70.7774 28.6965 70.956 29.118C71.2167 29.7337 70.6294 30.5292 69.9262 30.5105C69.2362 30.4922 68.7012 29.722 68.9571 29.118Z" stroke="#1E1E1E" stroke-width="0.5"/>
<path d="M79.8725 26.4127L77.6918 23.5249C77.6918 23.5249 79.9788 27.3469 79.8725 29.9968C79.7649 32.676 77.1224 36.3546 77.1224 36.3546L79.8725 33.6494L76.6257 38.3635L79.3758 35.8866L77.6918 39.4137L80.8174 36.7085L77.6918 41.7079L81.6897 37.3591L79.8725 41.7079L84.3791 34.6539L81.3141 41.7079L86.5598 36.7085L84.3791 40.772L89.0554 35.8866L82.3075 45.3035L87.5653 40.772L85.0576 45.3035L88.4376 42.1873L85.0576 47.8945L90.3032 41.7079L87.0565 47.8945L93.4289 39.0598L87.5653 49.892C87.5653 49.892 96.5474 39.6203 97.1844 31.709C97.8333 23.6493 90.3032 12.0535 90.3032 12.0535L93.8044 19.6441L89.0554 12.9895L93.4289 23.1711L86.5598 12.0535L90.3032 19.2902L91.5632 26.4127L89.5642 19.6441L85.0576 12.0535L88.4376 19.6441L85.0576 15.8203L87.5653 23.5249L84.3791 18.2857L86.5598 23.5249L87.0565 27.3487L85.627 23.5249L83.0586 19.2902L83.943 22.646L81.3141 19.2902L83.0586 24.2897L80.8174 22.178L82.3075 26.4127L79.0002 20.9909L79.8725 24.7577L76.3107 19.6441L79.8725 26.4127Z" fill="white" fill-opacity="0.99"/>
</svg>
