<svg width="77" height="103" viewBox="0 0 77 103" fill="none" xmlns="http://www.w3.org/2000/svg">
<path d="M19.25 19.3125V51.5C19.25 62.1621 27.8724 70.8125 38.5 70.8125C49.1277 70.8125 57.75 62.1621 57.75 51.5H41.7084C39.9438 51.5 38.5 50.0516 38.5 48.2812C38.5 46.5109 39.9438 45.0625 41.7084 45.0625H57.75V38.625H41.7084C39.9438 38.625 38.5 37.1766 38.5 35.4062C38.5 33.6359 39.9438 32.1875 41.7084 32.1875H57.75V25.75H41.7084C39.9438 25.75 38.5 24.3016 38.5 22.5312C38.5 20.7609 39.9438 19.3125 41.7084 19.3125H57.75C57.75 8.65039 49.1277 0 38.5 0C27.8724 0 19.25 8.65039 19.25 19.3125ZM64.1667 48.2812V51.5C64.1667 65.7229 52.6769 77.25 38.5 77.25C24.3232 77.25 12.8334 65.7229 12.8334 51.5V43.4531C12.8334 40.7775 10.6878 38.625 8.02087 38.625C5.35395 38.625 3.20837 40.7775 3.20837 43.4531V51.5C3.20837 69.4244 16.4829 84.2307 33.6875 86.5844V93.3438H24.0625C21.3956 93.3438 19.25 95.4963 19.25 98.1719C19.25 100.847 21.3956 103 24.0625 103H38.5H52.9375C55.6045 103 57.75 100.847 57.75 98.1719C57.75 95.4963 55.6045 93.3438 52.9375 93.3438H43.3125V86.5844C60.5172 84.2307 73.7917 69.4244 73.7917 51.5V43.4531C73.7917 40.7775 71.6461 38.625 68.9792 38.625C66.3123 38.625 64.1667 40.7775 64.1667 43.4531V48.2812Z" fill="white"/>
</svg>
