<svg width="103" height="104" viewBox="0 0 103 104" fill="none" xmlns="http://www.w3.org/2000/svg">
<path d="M100.405 2.26714C102.034 3.47417 103 5.40542 103 7.43726V21.9216V75.031C103 83.9228 94.3496 91.1248 83.6875 91.1248C73.0254 91.1248 64.375 83.9228 64.375 75.031C64.375 66.1392 73.0254 58.9373 83.6875 58.9373C85.9406 58.9373 88.1133 59.2591 90.125 59.8627V30.572L38.625 46.022V87.906C38.625 96.7978 29.9746 104 19.3125 104C8.65039 104 0 96.7978 0 87.906C0 79.0142 8.65039 71.8123 19.3125 71.8123C21.5656 71.8123 23.7383 72.1341 25.75 72.7376V41.2341V26.7498C25.75 23.9132 27.6209 21.3986 30.3367 20.5738L94.7117 1.26128C96.6631 0.677881 98.7754 1.03999 100.405 2.26714Z" fill="white"/>
</svg>
