<svg width="90" height="103" viewBox="0 0 90 103" fill="none" xmlns="http://www.w3.org/2000/svg">
<g clip-path="url(#clip0_132_79)">
<path d="M45 51.5C51.8199 51.5 58.3604 48.7871 63.1827 43.958C68.0051 39.1289 70.7143 32.5793 70.7143 25.75C70.7143 18.9207 68.0051 12.3711 63.1827 7.542C58.3604 2.71294 51.8199 0 45 0C38.1801 0 31.6396 2.71294 26.8173 7.542C21.9949 12.3711 19.2857 18.9207 19.2857 25.75C19.2857 32.5793 21.9949 39.1289 26.8173 43.958C31.6396 48.7871 38.1801 51.5 45 51.5ZM35.8192 61.1562C16.0312 61.1562 0 77.2098 0 97.0252C0 100.324 2.67188 103 5.96652 103H84.0335C87.3281 103 90 100.324 90 97.0252C90 77.2098 73.9688 61.1562 54.1808 61.1562H35.8192Z" fill="white"/>
</g>
<defs>
<clipPath id="clip0_132_79">
<rect width="90" height="103" fill="white"/>
</clipPath>
</defs>
</svg>
